<?xml version='1.0' encoding='utf-8'?>
<svg xmlns="http://www.w3.org/2000/svg" width="1400" height="800" viewBox="0 0 1400 800">
  <style>
        .title { font: bold 24px sans-serif; }
        .axis-label { font: bold 14px sans-serif; }
        .tick-label { font: 12px sans-serif; }
        .legend-text { font: 12px sans-serif; }
        .grid { stroke: #ddd; stroke-width: 1; stroke-dasharray: 5,5; }
        .axis { stroke: #000; stroke-width: 2; }
        .line-outward { stroke: #4BC0C0; stroke-width: 2; fill: none; }
        .line-inward { stroke: #FF6384; stroke-width: 2; fill: none; }
        .bar-positive { fill: #36A2EB; opacity: 0.8; }
        .bar-negative { fill: #FF6384; opacity: 0.8; }
    </style>
  <text x="700.0" y="40" text-anchor="middle" class="title">Securities Investment Trends (Outward &amp; Inward)</text>
  <text x="700.0" y="65" text-anchor="middle" class="axis-label">2020-2024</text>
  <line x1="100" y1="700.0" x2="1300" y2="700.0" class="grid" />
  <text x="90" y="705.0" text-anchor="end" class="tick-label">-2708</text>
  <line x1="100" y1="638.0" x2="1300" y2="638.0" class="grid" />
  <text x="90" y="643.0" text-anchor="end" class="tick-label">-1797</text>
  <line x1="100" y1="576.0" x2="1300" y2="576.0" class="grid" />
  <text x="90" y="581.0" text-anchor="end" class="tick-label">-887</text>
  <line x1="100" y1="514.0" x2="1300" y2="514.0" class="grid" />
  <text x="90" y="519.0" text-anchor="end" class="tick-label">23</text>
  <line x1="100" y1="452.0" x2="1300" y2="452.0" class="grid" />
  <text x="90" y="457.0" text-anchor="end" class="tick-label">934</text>
  <line x1="100" y1="390.0" x2="1300" y2="390.0" class="grid" />
  <text x="90" y="395.0" text-anchor="end" class="tick-label">1844</text>
  <line x1="100" y1="327.99999999999994" x2="1300" y2="327.99999999999994" class="grid" />
  <text x="90" y="332.99999999999994" text-anchor="end" class="tick-label">2754</text>
  <line x1="100" y1="266.0" x2="1300" y2="266.0" class="grid" />
  <text x="90" y="271.0" text-anchor="end" class="tick-label">3665</text>
  <line x1="100" y1="204.0" x2="1300" y2="204.0" class="grid" />
  <text x="90" y="209.0" text-anchor="end" class="tick-label">4575</text>
  <line x1="100" y1="142.0" x2="1300" y2="142.0" class="grid" />
  <text x="90" y="147.0" text-anchor="end" class="tick-label">5485</text>
  <line x1="100" y1="80.0" x2="1300" y2="80.0" class="grid" />
  <text x="90" y="85.0" text-anchor="end" class="tick-label">6396</text>
  <text x="100.0" y="725" text-anchor="middle" class="tick-label">2020年01月</text>
  <text x="162.0689655172414" y="725" text-anchor="middle" class="tick-label">2020年04月</text>
  <text x="224.13793103448276" y="725" text-anchor="middle" class="tick-label">2020年07月</text>
  <text x="286.2068965517242" y="725" text-anchor="middle" class="tick-label">2020年10月</text>
  <text x="348.2758620689655" y="725" text-anchor="middle" class="tick-label">2021年01月</text>
  <text x="410.3448275862069" y="725" text-anchor="middle" class="tick-label">2021年04月</text>
  <text x="472.4137931034483" y="725" text-anchor="middle" class="tick-label">2021年07月</text>
  <text x="534.4827586206897" y="725" text-anchor="middle" class="tick-label">2021年10月</text>
  <text x="596.551724137931" y="725" text-anchor="middle" class="tick-label">2022年01月</text>
  <text x="658.6206896551724" y="725" text-anchor="middle" class="tick-label">2022年04月</text>
  <text x="720.6896551724138" y="725" text-anchor="middle" class="tick-label">2022年07月</text>
  <text x="782.7586206896552" y="725" text-anchor="middle" class="tick-label">2022年10月</text>
  <text x="844.8275862068966" y="725" text-anchor="middle" class="tick-label">2023年01月</text>
  <text x="906.8965517241379" y="725" text-anchor="middle" class="tick-label">2023年04月</text>
  <text x="968.9655172413793" y="725" text-anchor="middle" class="tick-label">2023年07月</text>
  <text x="1031.0344827586207" y="725" text-anchor="middle" class="tick-label">2023年10月</text>
  <text x="1093.103448275862" y="725" text-anchor="middle" class="tick-label">2024年01月</text>
  <text x="1155.1724137931035" y="725" text-anchor="middle" class="tick-label">2024年04月</text>
  <text x="1217.2413793103449" y="725" text-anchor="middle" class="tick-label">2024年07月</text>
  <text x="1279.3103448275863" y="725" text-anchor="middle" class="tick-label">2024年10月</text>
  <line x1="100" y1="80" x2="100" y2="700" class="axis" />
  <line x1="100" y1="700" x2="1300" y2="700" class="axis" />
  <line x1="100" y1="515.5843790642905" x2="1300" y2="515.5843790642905" class="axis" />
  <text x="700.0" y="780" text-anchor="middle" class="axis-label">Year-Month</text>
  <text x="30" y="400.0" text-anchor="middle" class="axis-label">Amount (Billion Yen)</text>
  <polyline points="100.0,437.78199585222677 120.6896551724138,416.45853105557313 141.3793103448276,382.8490456606559 162.0689655172414,424.8081215508454 182.75862068965517,419.3393440894232 203.44827586206895,407.1009965200886 224.13793103448276,395.5368817884636 244.82758620689657,433.53909627754933 265.51724137931035,406.7196122886569 286.2068965517242,412.29054624064116 306.8965517241379,398.9420981405322 327.58620689655174,387.8819554290133 348.2758620689655,376.0113712257022 368.9655172413793,369.1192133291152 389.65517241379314,324.01371752961444 410.3448275862069,384.3269095574537 431.0344827586207,450.7490597209041 451.7241379310345,404.3223399768006 472.4137931034483,361.2804052866533 493.10344827586204,356.2951685472249 513.7931034482758,381.7253242644732 534.4827586206897,376.25654680305104 555.1724137931035,361.9818798551795 575.8620689655172,327.61643643010297 596.551724137931,348.78326127456154 617.2413793103448,324.0750114239516 637.9310344827586,284.02966712362473 658.6206896551724,354.020484024043 679.3103448275863,290.3361278076558 700.0,297.49389257970404 720.6896551724138,272.4178793630707 741.3793103448276,350.03638089212274 762.0689655172414,285.3100284720025 782.7586206896552,310.35879995781926 803.448275862069,319.8661640127948 824.1379310344828,261.3985992477767 844.8275862068966,280.76065942563883 865.5172413793105,292.52227670568385 886.2068965517241,217.2261327287427 906.8965517241379,299.56426412176177 927.5862068965517,296.92862666526065 948.2758620689655,327.37807128545825 968.9655172413793,292.6857270905832 989.6551724137931,244.70622868993638 1010.3448275862069,270.1023322436641 1031.0344827586207,247.6687669162361 1051.7241379310344,269.7618106084572 1072.4137931034484,218.55416710604948 1093.103448275862,196.1206017786214 1113.7931034482758,155.91180709339517 1134.4827586206895,131.66666666666663 1155.1724137931035,243.6097490245703 1175.8620689655172,213.2284087314141 1196.5517241379312,186.8788445991072 1217.2413793103449,273.8344493655313 1237.9310344827586,193.9753154768182 1258.6206896551726,226.20909346549968 1279.3103448275863,162.12292171956835 1300.0,220.767557734894" class="line-outward" />
  <polyline points="100.0,621.2754841997961 120.6896551724138,603.3980983514359 141.3793103448276,648.3333333333334 162.0689655172414,623.2028366550669 182.75862068965517,615.3708390453091 203.44827586206895,593.9656490562058 224.13793103448276,615.4798059685753 244.82758620689657,638.4718267777426 265.51724137931035,590.9554378009772 286.2068965517242,619.9133976589687 306.8965517241379,647.4411666490913 327.58620689655174,607.7227231185631 348.2758620689655,574.9849731097754 368.9655172413793,564.9940683328061 389.65517241379314,592.8146859292067 410.3448275862069,601.0144469049878 431.0344827586207,582.4696386516222 451.7241379310345,552.1700235509156 472.4137931034483,594.9735930964182 493.10344827586204,590.5468118387289 513.7931034482758,576.0746423424373 534.4827586206897,553.3414179760273 555.1724137931035,562.9168863580442 575.8620689655172,560.2948697669514 596.551724137931,571.1030264684172 617.2413793103448,546.2449470983163 637.9310344827586,508.7262733312243 658.6206896551724,578.9009719146543 679.3103448275863,527.3936693732644 700.0,539.3732204998419 720.6896551724138,558.3675173116806 741.3793103448276,567.3164258849168 762.0689655172414,585.9429593307322 782.7586206896552,551.2710464339696 803.448275862069,541.6615258884319 824.1379310344828,509.0191219375022 844.8275862068966,555.2755808640022 865.5172413793105,559.8181394776618 886.2068965517241,554.4038454778727 906.8965517241379,527.5162571619389 927.5862068965517,548.8261010931843 948.2758620689655,564.939584871173 968.9655172413793,534.3335002987803 989.6551724137931,543.200683679567 1010.3448275862069,539.3936517979542 1031.0344827586207,524.5741502337517 1051.7241379310344,563.4821522724876 1072.4137931034484,535.0417853000106 1093.103448275862,529.8181834159373 1113.7931034482758,536.5400804949207 1134.4827586206895,526.8556451896376 1155.1724137931035,552.2585591760694 1175.8620689655172,500.124696825899 1196.5517241379312,515.1280800731133 1217.2413793103449,514.6785915146402 1237.9310344827586,540.4424584343914 1258.6206896551726,529.2529175014939 1279.3103448275863,550.7602639811593 1300.0,501.38462687616436" class="line-inward" />
  <line x1="1310" y1="80" x2="1340" y2="80" class="line-outward" />
  <text x="1345" y="85" text-anchor="start" class="legend-text">Outward</text>
  <line x1="1310" y1="105" x2="1340" y2="105" class="line-inward" />
  <text x="1345" y="110" text-anchor="start" class="legend-text">Inward</text>
</svg>